# xmcd CD database file
#
# Track frame offsets:
#	150
#	17338
#	31625
#	44003
#	58320
#	73721
#	86275
#	98402
#	115313
#	135845
#	152744
#	165059
#	182607
#	196912
#	208368
#	223198
#	235951
#	249094
#	267719
#	282007
#
# Disc length: 3943 seconds
#
# Revision: 0
# Processed by: cddbd v1.5.2PL0 Copyright (c) Steve Scherf et al.
# Submitted via: CDex 2.11
#
DISCID=0c0f6514
DTITLE=Various Artist - Just The Hits - Country CD 1
DYEAR=2019
DGENRE=Country
TTITLE0=Toby Keith  - As Good As I Once Was
TTITLE1=David Nail - Night's On Fire
TTITLE2=Sam Hunt - Body Like A Back Road
TTITLE3=Terri Clark - Poor, Poor Pitiful Me - Album Version
TTITLE4=Billy Ray Cyrus - Achy Breaky Heart
TTITLE5=Lee Kernaghan - Boys From The Bush (2017 Remastered)
TTITLE6=The Oak Ridge Boys - Elvira - Single Version
TTITLE7=Christie Lamb - Judgement Day
TTITLE8=Travis Collins and Amber Lawrence - Our Backyard
TTITLE9=Trace Adkins - You're Gonna Miss This
TTITLE10=Patsy Cline Featuring The Jordanaires - Crazy - Single Version
TTITLE11=Billy Currington  - People Are Crazy - Album Version
TTITLE12=Caitlyn Shadbolt - My Breakup Anthem
TTITLE13=Slim Dusty - Ringer From The Top End
TTITLE14=David Lee Murphy - Party Crowd - Album Version
TTITLE15=Tori Forsyth - Broke Machine
TTITLE16=Adam Brand - Dirt Track Cowboys
TTITLE17=Jasmine Rae - When I Found You
TTITLE18=The Wolfe Brothers - One Beer At A Time
TTITLE19=Loretta Lynn - Coal Miner's Daughter - Single Version
EXTD=YEAR: 2019
EXTT0=
EXTT1=
EXTT2=
EXTT3=
EXTT4=
EXTT5=
EXTT6=
EXTT7=
EXTT8=
EXTT9=
EXTT10=
EXTT11=
EXTT12=
EXTT13=
EXTT14=
EXTT15=
EXTT16=
EXTT17=
EXTT18=
EXTT19=
PLAYORDER=
